<mxfile host="app.diagrams.net" modified="2023-10-12T05:55:09.366Z" agent="Mozilla/5.0 (Windows NT 10.0; Win64; x64; rv:109.0) Gecko/20100101 Firefox/118.0" etag="VmtLGQ-Ee7llIztOPSYo" version="22.0.4" type="device">
  <diagram name="Page-1" id="dr1M956f1EY3AUjg7c7D">
    <mxGraphModel dx="649" dy="270" grid="1" gridSize="10" guides="1" tooltips="1" connect="1" arrows="1" fold="1" page="1" pageScale="1" pageWidth="850" pageHeight="1100" math="0" shadow="0">
      <root>
        <mxCell id="0" />
        <mxCell id="1" parent="0" />
        <mxCell id="DoZ7O2RC09YMkObxaoMz-1" value="Programma kas saskaita skaitļus no 1 līdz 100" style="text;html=1;strokeColor=none;fillColor=none;align=center;verticalAlign=middle;whiteSpace=wrap;rounded=0;" vertex="1" parent="1">
          <mxGeometry x="40" y="10" width="320" height="30" as="geometry" />
        </mxCell>
        <mxCell id="DoZ7O2RC09YMkObxaoMz-2" value="Sākums" style="ellipse;whiteSpace=wrap;html=1;" vertex="1" parent="1">
          <mxGeometry x="150" y="40" width="60" height="60" as="geometry" />
        </mxCell>
        <mxCell id="DoZ7O2RC09YMkObxaoMz-4" style="edgeStyle=orthogonalEdgeStyle;rounded=0;orthogonalLoop=1;jettySize=auto;html=1;exitX=0.5;exitY=1;exitDx=0;exitDy=0;" edge="1" parent="1" source="DoZ7O2RC09YMkObxaoMz-2">
          <mxGeometry relative="1" as="geometry">
            <mxPoint x="180" y="140" as="targetPoint" />
          </mxGeometry>
        </mxCell>
        <mxCell id="DoZ7O2RC09YMkObxaoMz-7" style="edgeStyle=orthogonalEdgeStyle;rounded=0;orthogonalLoop=1;jettySize=auto;html=1;exitX=0.5;exitY=1;exitDx=0;exitDy=0;entryX=0.5;entryY=0;entryDx=0;entryDy=0;" edge="1" parent="1" source="DoZ7O2RC09YMkObxaoMz-5" target="DoZ7O2RC09YMkObxaoMz-6">
          <mxGeometry relative="1" as="geometry" />
        </mxCell>
        <mxCell id="DoZ7O2RC09YMkObxaoMz-5" value="&lt;div&gt;x = 0&lt;/div&gt;&lt;div&gt;y = 0&lt;br&gt;&lt;/div&gt;" style="rounded=0;whiteSpace=wrap;html=1;" vertex="1" parent="1">
          <mxGeometry x="135" y="140" width="90" height="40" as="geometry" />
        </mxCell>
        <mxCell id="DoZ7O2RC09YMkObxaoMz-14" style="edgeStyle=orthogonalEdgeStyle;rounded=0;orthogonalLoop=1;jettySize=auto;html=1;exitX=1;exitY=0.5;exitDx=0;exitDy=0;entryX=0;entryY=0.5;entryDx=0;entryDy=0;" edge="1" parent="1" source="DoZ7O2RC09YMkObxaoMz-6" target="DoZ7O2RC09YMkObxaoMz-17">
          <mxGeometry relative="1" as="geometry">
            <mxPoint x="370" y="265.28571428571433" as="targetPoint" />
          </mxGeometry>
        </mxCell>
        <mxCell id="DoZ7O2RC09YMkObxaoMz-6" value="y &amp;lt;= 100" style="rhombus;whiteSpace=wrap;html=1;" vertex="1" parent="1">
          <mxGeometry x="130" y="210" width="100" height="110" as="geometry" />
        </mxCell>
        <mxCell id="DoZ7O2RC09YMkObxaoMz-10" style="edgeStyle=orthogonalEdgeStyle;rounded=0;orthogonalLoop=1;jettySize=auto;html=1;exitX=0.5;exitY=1;exitDx=0;exitDy=0;" edge="1" parent="1" source="DoZ7O2RC09YMkObxaoMz-8">
          <mxGeometry relative="1" as="geometry">
            <mxPoint x="180.1428571428571" y="460" as="targetPoint" />
          </mxGeometry>
        </mxCell>
        <mxCell id="DoZ7O2RC09YMkObxaoMz-8" value="x = y + x" style="rounded=0;whiteSpace=wrap;html=1;" vertex="1" parent="1">
          <mxGeometry x="120" y="360" width="120" height="60" as="geometry" />
        </mxCell>
        <mxCell id="DoZ7O2RC09YMkObxaoMz-9" style="edgeStyle=orthogonalEdgeStyle;rounded=0;orthogonalLoop=1;jettySize=auto;html=1;exitX=0.5;exitY=1;exitDx=0;exitDy=0;" edge="1" parent="1" source="DoZ7O2RC09YMkObxaoMz-6">
          <mxGeometry relative="1" as="geometry">
            <mxPoint x="180" y="360" as="targetPoint" />
          </mxGeometry>
        </mxCell>
        <mxCell id="DoZ7O2RC09YMkObxaoMz-13" style="edgeStyle=orthogonalEdgeStyle;rounded=0;orthogonalLoop=1;jettySize=auto;html=1;exitX=0;exitY=0.5;exitDx=0;exitDy=0;" edge="1" parent="1" source="DoZ7O2RC09YMkObxaoMz-11">
          <mxGeometry relative="1" as="geometry">
            <mxPoint x="180" y="190" as="targetPoint" />
            <mxPoint x="110" y="490" as="sourcePoint" />
            <Array as="points">
              <mxPoint x="80" y="490" />
              <mxPoint x="80" y="190" />
            </Array>
          </mxGeometry>
        </mxCell>
        <mxCell id="DoZ7O2RC09YMkObxaoMz-11" value="y = y + 1" style="rounded=0;whiteSpace=wrap;html=1;" vertex="1" parent="1">
          <mxGeometry x="120" y="460" width="120" height="60" as="geometry" />
        </mxCell>
        <mxCell id="DoZ7O2RC09YMkObxaoMz-12" value="Jā" style="text;html=1;align=center;verticalAlign=middle;resizable=0;points=[];autosize=1;strokeColor=none;fillColor=none;" vertex="1" parent="1">
          <mxGeometry x="170" y="320" width="40" height="30" as="geometry" />
        </mxCell>
        <mxCell id="DoZ7O2RC09YMkObxaoMz-15" value="Nē" style="text;html=1;align=center;verticalAlign=middle;resizable=0;points=[];autosize=1;strokeColor=none;fillColor=none;" vertex="1" parent="1">
          <mxGeometry x="240" y="235" width="40" height="30" as="geometry" />
        </mxCell>
        <mxCell id="DoZ7O2RC09YMkObxaoMz-19" style="edgeStyle=orthogonalEdgeStyle;rounded=0;orthogonalLoop=1;jettySize=auto;html=1;exitX=1;exitY=0.5;exitDx=0;exitDy=0;entryX=0;entryY=0.5;entryDx=0;entryDy=0;" edge="1" parent="1" source="DoZ7O2RC09YMkObxaoMz-17" target="DoZ7O2RC09YMkObxaoMz-18">
          <mxGeometry relative="1" as="geometry" />
        </mxCell>
        <mxCell id="DoZ7O2RC09YMkObxaoMz-17" value="x" style="shape=parallelogram;perimeter=parallelogramPerimeter;whiteSpace=wrap;html=1;fixedSize=1;" vertex="1" parent="1">
          <mxGeometry x="310" y="235" width="120" height="60" as="geometry" />
        </mxCell>
        <mxCell id="DoZ7O2RC09YMkObxaoMz-18" value="Beigas" style="ellipse;whiteSpace=wrap;html=1;aspect=fixed;" vertex="1" parent="1">
          <mxGeometry x="505" y="225" width="80" height="80" as="geometry" />
        </mxCell>
        <mxCell id="DoZ7O2RC09YMkObxaoMz-20" value="Aprēķinat vai ievadītais gads ir garais gads" style="text;html=1;strokeColor=none;fillColor=none;align=center;verticalAlign=middle;whiteSpace=wrap;rounded=0;" vertex="1" parent="1">
          <mxGeometry x="80" y="610" width="260" height="30" as="geometry" />
        </mxCell>
        <mxCell id="DoZ7O2RC09YMkObxaoMz-25" style="edgeStyle=orthogonalEdgeStyle;rounded=0;orthogonalLoop=1;jettySize=auto;html=1;exitX=0.5;exitY=1;exitDx=0;exitDy=0;" edge="1" parent="1" source="DoZ7O2RC09YMkObxaoMz-21">
          <mxGeometry relative="1" as="geometry">
            <mxPoint x="199.66666666666674" y="720" as="targetPoint" />
          </mxGeometry>
        </mxCell>
        <mxCell id="DoZ7O2RC09YMkObxaoMz-21" value="Sākums" style="ellipse;whiteSpace=wrap;html=1;aspect=fixed;" vertex="1" parent="1">
          <mxGeometry x="175" y="650" width="50" height="50" as="geometry" />
        </mxCell>
        <mxCell id="DoZ7O2RC09YMkObxaoMz-27" value="Lietotājs ievada gadu" style="text;html=1;strokeColor=none;fillColor=none;align=center;verticalAlign=middle;whiteSpace=wrap;rounded=0;" vertex="1" parent="1">
          <mxGeometry x="290" y="670" width="170" height="30" as="geometry" />
        </mxCell>
        <mxCell id="DoZ7O2RC09YMkObxaoMz-28" value="Programma aprēķina vai gads ir garais gads" style="text;html=1;strokeColor=none;fillColor=none;align=center;verticalAlign=middle;whiteSpace=wrap;rounded=0;" vertex="1" parent="1">
          <mxGeometry x="290" y="700" width="170" height="30" as="geometry" />
        </mxCell>
        <mxCell id="DoZ7O2RC09YMkObxaoMz-29" value="Programma izvada, vai gads ir garais gads" style="text;html=1;align=center;verticalAlign=middle;resizable=0;points=[];autosize=1;strokeColor=none;fillColor=none;" vertex="1" parent="1">
          <mxGeometry x="255" y="730" width="250" height="30" as="geometry" />
        </mxCell>
        <mxCell id="DoZ7O2RC09YMkObxaoMz-30" value="Jāiesniedz blokshēma &amp;amp; programma" style="text;html=1;align=center;verticalAlign=middle;resizable=0;points=[];autosize=1;strokeColor=none;fillColor=none;" vertex="1" parent="1">
          <mxGeometry x="90" y="778" width="220" height="30" as="geometry" />
        </mxCell>
        <mxCell id="DoZ7O2RC09YMkObxaoMz-31" value="Programmas gaita:" style="text;html=1;align=center;verticalAlign=middle;resizable=0;points=[];autosize=1;strokeColor=none;fillColor=none;" vertex="1" parent="1">
          <mxGeometry x="310" y="640" width="120" height="30" as="geometry" />
        </mxCell>
        <mxCell id="DoZ7O2RC09YMkObxaoMz-32" value="Uzdevums" style="text;html=1;align=center;verticalAlign=middle;resizable=0;points=[];autosize=1;strokeColor=none;fillColor=none;" vertex="1" parent="1">
          <mxGeometry x="160" y="588" width="80" height="30" as="geometry" />
        </mxCell>
      </root>
    </mxGraphModel>
  </diagram>
</mxfile>
